HIERARCHY
ROOT Hips
{
  OFFSET 0.000000 95.000000 0.000000
  CHANNELS 6 Xposition Yposition Zposition Zrotation Xrotation Yrotation
  JOINT Spine
  {
    OFFSET 0.000000 10.000000 0.000000
    CHANNELS 3 Zrotation Xrotation Yrotation
    JOINT Spine1
    {
      OFFSET 0.000000 12.000000 0.000000
      CHANNELS 3 Zrotation Xrotation Yrotation
      JOINT Spine2
      {
        OFFSET 0.000000 12.000000 0.000000
        CHANNELS 3 Zrotation Xrotation Yrotation
        JOINT Neck
        {
          OFFSET 0.000000 10.000000 0.000000
          CHANNELS 3 Zrotation Xrotation Yrotation
          JOINT Head
          {
            OFFSET 0.000000 8.000000 0.000000
            CHANNELS 3 Zrotation Xrotation Yrotation
            End Site
            {
              OFFSET 0.000000 10.000000 0.000000
            }
          }
        }
        JOINT LeftShoulder
        {
          OFFSET 6.000000 8.000000 0.000000
          CHANNELS 3 Zrotation Xrotation Yrotation
          JOINT LeftArm
          {
            OFFSET 12.000000 0.000000 0.000000
            CHANNELS 3 Zrotation Xrotation Yrotation
            JOINT LeftForeArm
            {
              OFFSET 24.000000 0.000000 0.000000
              CHANNELS 3 Zrotation Xrotation Yrotation
              JOINT LeftHand
              {
                OFFSET 22.000000 0.000000 0.000000
                CHANNELS 3 Zrotation Xrotation Yrotation
                JOINT LeftHandThumb1
                {
                  OFFSET 1.800000 -1.400000 0.500000
                  CHANNELS 3 Zrotation Xrotation Yrotation
                  JOINT LeftHandThumb2
                  {
                    OFFSET 2.400000 0.000000 0.000000
                    CHANNELS 3 Zrotation Xrotation Yrotation
                    JOINT LeftHandThumb3
                    {
                      OFFSET 1.900000 0.000000 0.000000
                      CHANNELS 3 Zrotation Xrotation Yrotation
                      End Site
                      {
                        OFFSET 1.600000 0.000000 0.000000
                      }
                    }
                  }
                }
                JOINT LeftHandIndex1
                {
                  OFFSET 6.600000 1.200000 0.300000
                  CHANNELS 3 Zrotation Xrotation Yrotation
                  JOINT LeftHandIndex2
                  {
                    OFFSET 2.000000 0.000000 0.000000
                    CHANNELS 3 Zrotation Xrotation Yrotation
                    JOINT LeftHandIndex3
                    {
                      OFFSET 1.200000 0.000000 0.000000
                      CHANNELS 3 Zrotation Xrotation Yrotation
                      End Site
                      {
                        OFFSET 1.000000 0.000000 0.000000
                      }
                    }
                  }
                }
                JOINT LeftHandMiddle1
                {
                  OFFSET 7.200000 0.000000 0.300000
                  CHANNELS 3 Zrotation Xrotation Yrotation
                  JOINT LeftHandMiddle2
                  {
                    OFFSET 3.000000 0.000000 0.000000
                    CHANNELS 3 Zrotation Xrotation Yrotation
                    JOINT LeftHandMiddle3
                    {
                      OFFSET 2.000000 0.000000 0.000000
                      CHANNELS 3 Zrotation Xrotation Yrotation
                      End Site
                      {
                        OFFSET 1.600000 0.000000 0.000000
                      }
                    }
                  }
                }
                JOINT LeftHandRing1
                {
                  OFFSET 7.100000 -1.000000 0.400000
                  CHANNELS 3 Zrotation Xrotation Yrotation
                  JOINT LeftHandRing2
                  {
                    OFFSET 2.600000 0.000000 0.000000
                    CHANNELS 3 Zrotation Xrotation Yrotation
                    JOINT LeftHandRing3
                    {
                      OFFSET 1.600000 0.000000 0.000000
                      CHANNELS 3 Zrotation Xrotation Yrotation
                      End Site
                      {
                        OFFSET 1.300000 0.000000 0.000000
                      }
                    }
                  }
                }
                JOINT LeftHandPinky1
                {
                  OFFSET 6.500000 -2.000000 0.500000
                  CHANNELS 3 Zrotation Xrotation Yrotation
                  JOINT LeftHandPinky2
                  {
                    OFFSET 1.900000 0.000000 0.000000
                    CHANNELS 3 Zrotation Xrotation Yrotation
                    JOINT LeftHandPinky3
                    {
                      OFFSET 1.400000 0.000000 0.000000
                      CHANNELS 3 Zrotation Xrotation Yrotation
                      End Site
                      {
                        OFFSET 1.300000 0.000000 0.000000
                      }
                    }
                  }
                }
              }
            }
          }
        }
        JOINT RightShoulder
        {
          OFFSET -6.000000 8.000000 0.000000
          CHANNELS 3 Zrotation Xrotation Yrotation
          JOINT RightArm
          {
            OFFSET -12.000000 0.000000 0.000000
            CHANNELS 3 Zrotation Xrotation Yrotation
            JOINT RightForeArm
            {
              OFFSET -24.000000 0.000000 0.000000
              CHANNELS 3 Zrotation Xrotation Yrotation
              JOINT RightHand
              {
                OFFSET -22.000000 0.000000 0.000000
                CHANNELS 3 Zrotation Xrotation Yrotation
                JOINT RightHandThumb1
                {
                  OFFSET -1.800000 -1.400000 0.500000
                  CHANNELS 3 Zrotation Xrotation Yrotation
                  JOINT RightHandThumb2
                  {
                    OFFSET -2.400000 0.000000 0.000000
                    CHANNELS 3 Zrotation Xrotation Yrotation
                    JOINT RightHandThumb3
                    {
                      OFFSET -1.900000 0.000000 0.000000
                      CHANNELS 3 Zrotation Xrotation Yrotation
                      End Site
                      {
                        OFFSET -1.600000 0.000000 0.000000
                      }
                    }
                  }
                }
                JOINT RightHandIndex1
                {
                  OFFSET -6.600000 1.200000 0.300000
                  CHANNELS 3 Zrotation Xrotation Yrotation
                  JOINT RightHandIndex2
                  {
                    OFFSET -2.000000 0.000000 0.000000
                    CHANNELS 3 Zrotation Xrotation Yrotation
                    JOINT RightHandIndex3
                    {
                      OFFSET -1.200000 0.000000 0.000000
                      CHANNELS 3 Zrotation Xrotation Yrotation
                      End Site
                      {
                        OFFSET -1.000000 0.000000 0.000000
                      }
                    }
                  }
                }
                JOINT RightHandMiddle1
                {
                  OFFSET -7.200000 0.000000 0.300000
                  CHANNELS 3 Zrotation Xrotation Yrotation
                  JOINT RightHandMiddle2
                  {
                    OFFSET -3.000000 0.000000 0.000000
                    CHANNELS 3 Zrotation Xrotation Yrotation
                    JOINT RightHandMiddle3
                    {
                      OFFSET -2.000000 0.000000 0.000000
                      CHANNELS 3 Zrotation Xrotation Yrotation
                      End Site
                      {
                        OFFSET -1.600000 0.000000 0.000000
                      }
                    }
                  }
                }
                JOINT RightHandRing1
                {
                  OFFSET -7.100000 -1.000000 0.400000
                  CHANNELS 3 Zrotation Xrotation Yrotation
                  JOINT RightHandRing2
                  {
                    OFFSET -2.600000 0.000000 0.000000
                    CHANNELS 3 Zrotation Xrotation Yrotation
                    JOINT RightHandRing3
                    {
                      OFFSET -1.600000 0.000000 0.000000
                      CHANNELS 3 Zrotation Xrotation Yrotation
                      End Site
                      {
                        OFFSET -1.300000 0.000000 0.000000
                      }
                    }
                  }
                }
                JOINT RightHandPinky1
                {
                  OFFSET -6.500000 -2.000000 0.500000
                  CHANNELS 3 Zrotation Xrotation Yrotation
                  JOINT RightHandPinky2
                  {
                    OFFSET -1.900000 0.000000 0.000000
                    CHANNELS 3 Zrotation Xrotation Yrotation
                    JOINT RightHandPinky3
                    {
                      OFFSET -1.400000 0.000000 0.000000
                      CHANNELS 3 Zrotation Xrotation Yrotation
                      End Site
                      {
                        OFFSET -1.300000 0.000000 0.000000
                      }
                    }
                  }
                }
              }
            }
          }
        }
      }
    }
  }
  JOINT LeftUpLeg
  {
    OFFSET 10.000000 -5.000000 0.000000
    CHANNELS 3 Zrotation Xrotation Yrotation
    JOINT LeftLeg
    {
      OFFSET 0.000000 -42.000000 0.000000
      CHANNELS 3 Zrotation Xrotation Yrotation
      JOINT LeftFoot
      {
        OFFSET 0.000000 -42.000000 4.000000
        CHANNELS 3 Zrotation Xrotation Yrotation
        End Site
        {
          OFFSET 0.000000 0.000000 12.000000
        }
      }
    }
  }
  JOINT RightUpLeg
  {
    OFFSET -10.000000 -5.000000 0.000000
    CHANNELS 3 Zrotation Xrotation Yrotation
    JOINT RightLeg
    {
      OFFSET 0.000000 -42.000000 0.000000
      CHANNELS 3 Zrotation Xrotation Yrotation
      JOINT RightFoot
      {
        OFFSET 0.000000 -42.000000 4.000000
        CHANNELS 3 Zrotation Xrotation Yrotation
        End Site
        {
          OFFSET 0.000000 0.000000 12.000000
        }
      }
    }
  }
}
MOTION
Frames: 7
Frame Time: 0.033333
0.0705 0.1748 -0.0697 -5.2312 12.6878 13.3335 5.2822 1.2478 -13.2542 0.0000 0.0000 0.0000 0.0000 0.0000 0.0000 5.7015 50.2680 4.3651 0.0000 0.0000 0.0000 0.0000 0.0000 0.0000 -79.9118 2.2598 17.9335 -10.5976 10.5364 -11.5221 -174.4404 17.1155 174.9826 48.3590 -9.4102 5.1180 9.9257 0.0000 0.0000 2.8372 0.0000 0.0000 -2.6212 0.2674 -0.9403 9.0356 0.0000 0.0000 1.8126 0.0000 0.0000 11.0962 -0.0830 -3.9179 26.6577 0.0000 0.0000 20.1593 0.0000 0.0000 17.1603 -0.9076 -4.5015 38.5948 0.0000 0.0000 38.4819 0.0000 0.0000 21.3261 -2.0403 -4.2261 32.8206 0.0000 0.0000 49.5984 0.0000 0.0000 0.0000 0.0000 0.0000 83.5374 -22.4012 10.8414 55.6910 46.3975 116.5145 23.3424 38.5371 41.1992 -64.5340 -13.1330 -3.7456 49.4832 0.0000 0.0000 10.5601 0.0000 0.0000 1.1782 -0.8672 -5.3626 3.8811 0.0000 0.0000 5.5860 0.0000 0.0000 -11.3609 -0.7763 -3.0204 4.4376 0.0000 0.0000 3.0503 0.0000 0.0000 0.2733 0.1731 -1.0997 13.3458 0.0000 0.0000 3.2527 0.0000 0.0000 -5.7328 -0.0619 -1.4694 18.4197 0.0000 0.0000 3.5692 0.0000 0.0000 7.1897 -14.0651 -15.1208 0.0000 0.0000 0.0000 0.0000 0.0000 0.0000 15.5466 -5.6004 -13.5491 0.0000 0.0000 0.0000 0.0000 0.0000 0.0000
0.0625 0.1859 -0.0847 -5.0823 12.9437 13.0525 4.7778 1.1080 -13.0264 0.0000 0.0000 0.0000 0.0000 0.0000 0.0000 6.5644 50.1915 5.0051 0.0000 0.0000 0.0000 0.0000 0.0000 0.0000 -80.0003 1.1036 16.7962 -9.8557 9.9147 -10.8236 -173.3868 12.8130 176.3156 48.3216 -9.1164 6.3643 11.0964 0.0000 0.0000 2.5706 0.0000 0.0000 -5.0214 0.1362 0.6609 8.6906 0.0000 0.0000 2.9683 0.0000 0.0000 8.7181 -0.2279 -1.7830 31.6165 0.0000 0.0000 24.4437 0.0000 0.0000 15.9879 -0.8890 -1.8089 41.6780 0.0000 0.0000 33.0096 0.0000 0.0000 21.6145 -1.7697 -1.6530 34.4198 0.0000 0.0000 46.4445 0.0000 0.0000 0.0000 0.0000 0.0000 81.0385 -25.7097 14.9331 59.9652 67.7409 136.1679 -7.9774 13.2665 42.2200 -58.0037 -11.6597 -4.6156 54.4574 0.0000 0.0000 12.5831 0.0000 0.0000 4.6101 -0.6959 -6.4136 3.3830 0.0000 0.0000 6.0404 0.0000 0.0000 -9.6149 -0.8267 -5.0334 3.5593 0.0000 0.0000 3.4136 0.0000 0.0000 1.6039 0.5801 -3.1486 13.7614 0.0000 0.0000 4.8839 0.0000 0.0000 -4.8722 0.5454 -3.4924 19.7981 0.0000 0.0000 4.8271 0.0000 0.0000 7.3646 -13.2401 -14.6862 0.0000 0.0000 0.0000 0.0000 0.0000 0.0000 15.4309 -5.6449 -13.2262 0.0000 0.0000 0.0000 0.0000 0.0000 0.0000
0.0564 0.1944 -0.0962 -4.9680 13.1366 12.8384 4.3897 1.0036 -12.8535 0.0000 0.0000 0.0000 0.0000 0.0000 0.0000 7.2281 50.1314 5.4968 0.0000 0.0000 0.0000 0.0000 0.0000 0.0000 -80.0317 0.2286 15.9351 -9.3078 9.4488 -10.3061 -173.1805 13.1186 176.6718 48.3216 -9.1164 6.3643 11.0964 0.0000 0.0000 2.5706 0.0000 0.0000 -5.0214 0.1362 0.6609 8.6906 0.0000 0.0000 2.9683 0.0000 0.0000 8.7181 -0.2279 -1.7830 31.6165 0.0000 0.0000 24.4437 0.0000 0.0000 15.9879 -0.8890 -1.8089 41.6780 0.0000 0.0000 33.0096 0.0000 0.0000 21.6145 -1.7697 -1.6530 34.4198 0.0000 0.0000 46.4445 0.0000 0.0000 0.0000 0.0000 0.0000 78.8244 -28.0371 18.1385 68.4536 80.3390 149.4721 -11.3156 1.3026 48.9204 -58.0037 -11.6597 -4.6156 54.4574 0.0000 0.0000 12.5831 0.0000 0.0000 4.6101 -0.6959 -6.4136 3.3830 0.0000 0.0000 6.0404 0.0000 0.0000 -9.6149 -0.8267 -5.0334 3.5593 0.0000 0.0000 3.4136 0.0000 0.0000 1.6039 0.5801 -3.1486 13.7614 0.0000 0.0000 4.8839 0.0000 0.0000 -4.8722 0.5454 -3.4924 19.7981 0.0000 0.0000 4.8271 0.0000 0.0000 7.4980 -12.5904 -14.3504 0.0000 0.0000 0.0000 0.0000 0.0000 0.0000 15.3393 -5.6733 -12.9792 0.0000 0.0000 0.0000 0.0000 0.0000 0.0000
0.0533 0.1979 -0.1113 -4.9125 11.7081 12.6459 4.0650 0.9169 -12.6898 0.0000 0.0000 0.0000 0.0000 0.0000 0.0000 8.1039 51.1853 5.9957 0.0000 0.0000 0.0000 0.0000 0.0000 0.0000 -80.0284 1.1703 15.3083 -8.3465 9.3889 -10.3512 -172.5089 12.0315 176.9330 48.1635 -9.1303 6.1375 11.5896 0.0000 0.0000 2.7288 0.0000 0.0000 -6.4499 0.1571 1.0751 9.3931 0.0000 0.0000 3.3417 0.0000 0.0000 6.5306 -0.1543 -2.0683 35.0727 0.0000 0.0000 27.1095 0.0000 0.0000 13.9919 -0.8171 -2.2005 46.3902 0.0000 0.0000 37.7895 0.0000 0.0000 20.2852 -1.7508 -2.1185 37.6159 0.0000 0.0000 49.0345 0.0000 0.0000 0.0000 0.0000 0.0000 77.6205 -28.7482 21.1463 179.3709 76.1538 269.8943 -45.3135 -19.6941 50.3459 -47.6025 -9.0134 -6.0596 53.4091 0.0000 0.0000 15.4472 0.0000 0.0000 8.8682 -0.3396 -7.1576 1.6830 0.0000 0.0000 4.5644 0.0000 0.0000 -6.1956 -0.6485 -7.1673 2.4032 0.0000 0.0000 3.5106 0.0000 0.0000 -3.7140 0.5758 -7.2371 10.4507 0.0000 0.0000 5.6601 0.0000 0.0000 -10.6049 0.7661 -7.4460 16.5848 0.0000 0.0000 5.3963 0.0000 0.0000 7.1380 -11.8298 -14.0243 0.0000 0.0000 0.0000 0.0000 0.0000 0.0000 15.3089 -2.8139 -12.3094 0.0000 0.0000 0.0000 0.0000 0.0000 0.0000
0.0509 0.2005 -0.1227 -4.8719 10.5835 12.4992 3.8166 0.8516 -12.5599 0.0000 0.0000 0.0000 0.0000 0.0000 0.0000 8.8161 52.0258 6.4065 0.0000 0.0000 0.0000 0.0000 0.0000 0.0000 -80.0149 1.9577 14.8808 -7.6462 9.3946 -10.4351 -172.0134 12.4831 177.5067 48.1635 -9.1303 6.1375 11.5896 0.0000 0.0000 2.7288 0.0000 0.0000 -6.4499 0.1571 1.0751 9.3931 0.0000 0.0000 3.3417 0.0000 0.0000 6.5306 -0.1543 -2.0683 35.0727 0.0000 0.0000 27.1095 0.0000 0.0000 13.9919 -0.8171 -2.2005 46.3902 0.0000 0.0000 37.7895 0.0000 0.0000 20.2852 -1.7508 -2.1185 37.6159 0.0000 0.0000 49.0345 0.0000 0.0000 0.0000 0.0000 0.0000 76.6267 -29.2337 23.4911 193.5683 65.9673 287.4825 -50.4643 -29.2337 58.2201 -47.6025 -9.0134 -6.0596 53.4091 0.0000 0.0000 15.4472 0.0000 0.0000 8.8682 -0.3396 -7.1576 1.6830 0.0000 0.0000 4.5644 0.0000 0.0000 -6.1956 -0.6485 -7.1673 2.4032 0.0000 0.0000 3.5106 0.0000 0.0000 -3.7140 0.5758 -7.2371 10.4507 0.0000 0.0000 5.6601 0.0000 0.0000 -10.6049 0.7661 -7.4460 16.5848 0.0000 0.0000 5.3963 0.0000 0.0000 6.8644 -11.1881 -13.7716 0.0000 0.0000 0.0000 0.0000 0.0000 0.0000 15.3048 -0.5984 -11.8115 0.0000 0.0000 0.0000 0.0000 0.0000 0.0000
0.0529 0.2100 -0.1156 -4.7380 11.7318 12.2079 4.0572 0.8814 -12.2369 0.0000 0.0000 0.0000 0.0000 0.0000 0.0000 8.9027 50.0838 6.2060 0.0000 0.0000 0.0000 0.0000 0.0000 0.0000 -80.6856 -0.3517 13.3424 -7.6622 9.2533 -10.3949 -172.3578 8.0760 176.7890 48.8794 -9.0551 7.2400 12.4745 0.0000 0.0000 2.0507 0.0000 0.0000 -6.3159 0.1447 1.1157 8.5170 0.0000 0.0000 2.8124 0.0000 0.0000 6.9270 -0.2404 -0.8006 32.2481 0.0000 0.0000 22.6344 0.0000 0.0000 13.7683 -0.7884 -1.1371 46.3672 0.0000 0.0000 39.9546 0.0000 0.0000 20.1958 -1.6471 -1.3051 38.7844 0.0000 0.0000 55.4847 0.0000 0.0000 0.0000 0.0000 0.0000 73.3430 -32.1722 27.4662 199.2827 51.0030 297.4584 -77.5952 -45.1343 64.2101 -41.0864 -7.1879 -6.8213 42.3842 0.0000 0.0000 16.7928 0.0000 0.0000 10.3196 -0.2167 -7.5285 0.4832 0.0000 0.0000 2.3769 0.0000 0.0000 -3.8338 -0.4465 -8.5080 1.7145 0.0000 0.0000 3.0234 0.0000 0.0000 -9.6170 0.0463 -10.3683 5.4832 0.0000 0.0000 4.9763 0.0000 0.0000 -16.2976 0.4212 -10.3003 10.3041 0.0000 0.0000 4.7205 0.0000 0.0000 7.2758 -10.9653 -13.4256 0.0000 0.0000 0.0000 0.0000 0.0000 0.0000 15.6089 -1.8643 -11.6208 0.0000 0.0000 0.0000 0.0000 0.0000 0.0000
0.0544 0.2171 -0.1102 -4.6369 12.6010 11.9915 4.2351 0.9013 -11.9921 0.0000 0.0000 0.0000 0.0000 0.0000 0.0000 8.9662 48.5780 6.0560 0.0000 0.0000 0.0000 0.0000 0.0000 0.0000 -81.1438 -2.3049 11.9682 -7.5858 8.9307 -10.1046 -172.5255 8.9863 177.6884 48.8794 -9.0551 7.2400 12.4745 0.0000 0.0000 2.0507 0.0000 0.0000 -6.3159 0.1447 1.1157 8.5170 0.0000 0.0000 2.8124 0.0000 0.0000 6.9270 -0.2404 -0.8006 32.2481 0.0000 0.0000 22.6344 0.0000 0.0000 13.7683 -0.7884 -1.1371 46.3672 0.0000 0.0000 39.9546 0.0000 0.0000 20.1958 -1.6471 -1.3051 38.7844 0.0000 0.0000 55.4847 0.0000 0.0000 0.0000 0.0000 0.0000 70.7116 -34.1173 30.4714 201.9414 43.1077 301.0437 -84.7567 -49.6778 74.3619 -41.0864 -7.1879 -6.8213 42.3842 0.0000 0.0000 16.7928 0.0000 0.0000 10.3196 -0.2167 -7.5285 0.4832 0.0000 0.0000 2.3769 0.0000 0.0000 -3.8338 -0.4465 -8.5080 1.7145 0.0000 0.0000 3.0234 0.0000 0.0000 -9.6170 0.0463 -10.3683 5.4832 0.0000 0.0000 4.9763 0.0000 0.0000 -16.2976 0.4212 -10.3003 10.3041 0.0000 0.0000 4.7205 0.0000 0.0000 7.5773 -10.7864 -13.1569 0.0000 0.0000 0.0000 0.0000 0.0000 0.0000 15.8314 -2.8217 -11.4803 0.0000 0.0000 0.0000 0.0000 0.0000 0.0000
